# xmcd CD database file
#
# Track frame offsets:
#	150
#	10190
#	21118
#	33253
#	45975
#	56545
#	68600
#	78482
#	91017
#	101627
#	112432
#	124089
#	135319
#	145264
#	157459
#	168461
#	179606
#
# Disc length: 2558 seconds
#
# Revision: 0
# Processed by: cddbd v1.5.2PL0 Copyright (c) Steve Scherf et al.
# Submitted via: CDex 1.51
#
DISCID=e309fc11
DTITLE=Gene Pitney and George Jones - The Complete Duets 1965
DYEAR=1965
DGENRE=Country
TTITLE0=I've Got Five Dollars And It's Saturday Night
TTITLE1=I'm A Fool To Care
TTITLE2=My Shoes Keep Walking Back To You
TTITLE3=Sweeter Than The Flowers
TTITLE4=One Has My Name
TTITLE5=I've Got A New Heartache
TTITLE6=Don't Rob Another Man's Castle
TTITLE7=Wreck On The Highway
TTITLE8=Mockin' Bird Hill
TTITLE9=As Long As I Live
TTITLE10=Y'all Come
TTITLE11=Someday You'll Want Me To Want You
TTITLE12=Big Job
TTITLE13=Your Old Standby
TTITLE14=Why Baby Why
TTITLE15=That's All It Took
TTITLE16=Louisiana Man
EXTD=YEAR: 1965
EXTT0=
EXTT1=
EXTT2=
EXTT3=
EXTT4=
EXTT5=
EXTT6=
EXTT7=
EXTT8=
EXTT9=
EXTT10=
EXTT11=
EXTT12=
EXTT13=
EXTT14=
EXTT15=
EXTT16=
PLAYORDER=
